<?xml version="1.0" standalone="no"?>
<!DOCTYPE svg PUBLIC "-//W3C//DTD SVG 20010904//EN"
 "http://www.w3.org/TR/2001/REC-SVG-20010904/DTD/svg10.dtd">
<svg version="1.0" xmlns="http://www.w3.org/2000/svg"
 width="652.000000pt" height="333.000000pt" viewBox="0 0 652.000000 333.000000"
 preserveAspectRatio="xMidYMid meet">

<g transform="translate(0.000000,333.000000) scale(0.100000,-0.100000)"
fill="#000000" stroke="none">
<path d="M0 1665 l0 -1665 3260 0 3260 0 0 1665 0 1665 -3260 0 -3260 0 0
-1665z m2054 336 c25 -13 60 -39 76 -59 54 -66 60 -105 60 -423 0 -335 5 -319
-96 -319 l-64 0 0 115 c0 131 -11 163 -63 195 -45 28 -159 28 -204 0 -49 -30
-58 -54 -63 -185 l-5 -120 -57 -3 c-105 -5 -98 -27 -98 329 0 342 2 354 63
417 64 67 119 82 283 78 101 -2 129 -7 168 -25z m707 18 c72 -16 124 -65 145
-136 13 -44 15 -97 12 -291 -3 -222 -4 -240 -25 -279 -50 -93 -95 -105 -388
-101 l-230 3 -3 394 c-1 282 1 398 9 407 15 18 401 20 480 3z m656 -7 c17 -9
35 -8 85 4 44 12 88 15 148 12 118 -7 172 -35 214 -113 20 -38 21 -55 24 -349
2 -170 1 -320 -3 -333 -5 -22 -10 -23 -94 -23 -83 0 -89 1 -95 23 -3 12 -6
151 -6 309 0 323 8 296 -86 290 l-54 -4 0 -290 c0 -180 -4 -297 -10 -309 -9
-16 -22 -19 -94 -19 -67 0 -85 3 -90 16 -3 9 -6 148 -6 309 l0 293 -59 4
c-100 5 -90 37 -93 -310 l-3 -307 -90 0 -90 0 0 335 0 335 24 43 c45 78 110
103 256 99 55 -2 110 -9 122 -15z m741 10 c9 -7 12 -95 10 -408 l-3 -399 -90
0 -90 0 -3 394 c-1 282 1 398 9 407 13 15 145 20 167 6z m649 -20 c24 -12 55
-41 70 -64 l28 -42 0 -340 0 -341 -90 0 -90 0 -3 308 c-2 235 -5 307 -15 308
-6 0 -64 0 -127 0 l-115 0 -5 -308 c-3 -169 -7 -309 -8 -310 -1 -2 -42 -3 -91
-3 -84 0 -89 1 -95 23 -11 41 -7 757 5 778 10 20 19 20 252 17 229 -3 244 -4
284 -26z"/>
<path d="M1815 1818 c-36 -19 -55 -52 -55 -94 0 -78 73 -130 143 -101 45 19
67 52 67 102 -1 79 -86 131 -155 93z"/>
<path d="M2578 1832 l-118 -3 0 -215 0 -215 133 3 132 3 3 207 c2 190 1 208
-15 215 -10 4 -71 7 -135 5z"/>
</g>
</svg>
